<svg viewBox="400 200 400 600" width="2000" height="3000" xmlns="http://www.w3.org/2000/svg"><defs>
        <clipPath id="clip">
            <rect x="400" y="200" width="400" height="600" />
        </clipPath>
    </defs><path clip-path="url(#clip)" stroke="#ff0000" fill="none" stroke-width="2" stroke-opacity="0.00" d="M 768 208 C 933 364 783.7860160654968 553.4606484000597 757.8930080327484 600.7303242000298 M 757.8930080327484 600.7303242000298 C 732 648 712 196 763 357 M 763 357 C 814 518 192 718 422 801 "/><path clip-path="url(#clip)" stroke="#ff0000" fill="none" stroke-width="2" stroke-opacity="0.07" d="M 747.5 208.92857142857142 C 912.5 364.92857142857144 775.293658348872 557.2656252429147 749.4006503161236 604.5353010428848 M 749.4006503161236 604.5353010428848 C 723.5076422833752 651.804976842855 691.1428571428571 207.35714285714283 742.1428571428571 368.35714285714283 M 742.1428571428571 368.35714285714283 C 793.1428571428571 529.3571428571429 212.14285714285717 718.1428571428571 442.14285714285717 801.1428571428571 "/><path clip-path="url(#clip)" stroke="#ff0000" fill="none" stroke-width="2" stroke-opacity="0.13" d="M 727 209.85714285714286 C 892 365.8571428571429 766.801300632247 561.0706020857697 740.9082925994986 608.3402778857399 M 740.9082925994986 608.3402778857399 C 715.0152845667501 655.60995368571 670.2857142857143 218.71428571428572 721.2857142857143 379.7142857142857 M 721.2857142857143 379.7142857142857 C 772.2857142857142 540.7142857142858 232.28571428571428 718.2857142857143 462.2857142857143 801.2857142857143 "/><path clip-path="url(#clip)" stroke="#ff0000" fill="none" stroke-width="2" stroke-opacity="0.20" d="M 706.5 210.78571428571428 C 871.5 366.7857142857142 758.3089429156222 564.8755789286247 732.4159348828738 612.1452547285949 M 732.4159348828738 612.1452547285949 C 706.5229268501255 659.414930528565 649.4285714285714 230.07142857142856 700.4285714285714 391.07142857142856 M 700.4285714285714 391.07142857142856 C 751.4285714285716 552.0714285714286 252.42857142857144 718.4285714285714 482.42857142857144 801.4285714285714 "/><path clip-path="url(#clip)" stroke="#ff0000" fill="none" stroke-width="2" stroke-opacity="0.27" d="M 686 211.71428571428572 C 851 367.7142857142858 749.8165851989972 568.6805557714797 723.9235771662488 615.9502315714499 M 723.9235771662488 615.9502315714499 C 698.0305691335004 663.21990737142 628.5714285714286 241.42857142857144 679.5714285714286 402.42857142857144 M 679.5714285714286 402.42857142857144 C 730.5714285714284 563.4285714285714 272.57142857142856 718.5714285714286 502.57142857142856 801.5714285714286 "/><path clip-path="url(#clip)" stroke="#ff0000" fill="none" stroke-width="2" stroke-opacity="0.33" d="M 665.5 212.64285714285714 C 830.5 368.6428571428571 741.3242274823724 572.4855326143347 715.431219449624 619.7552084143049 M 715.431219449624 619.7552084143049 C 689.5382114168756 667.0248842142751 607.7142857142857 252.78571428571428 658.7142857142857 413.7857142857143 M 658.7142857142857 413.7857142857143 C 709.7142857142858 574.7857142857142 292.7142857142858 718.7142857142857 522.7142857142858 801.7142857142857 "/><path clip-path="url(#clip)" stroke="#ff0000" fill="none" stroke-width="2" stroke-opacity="0.40" d="M 645 213.57142857142858 C 810 369.57142857142856 732.8318697657475 576.2905094571897 706.938861732999 623.5601852571599 M 706.938861732999 623.5601852571599 C 681.0458537002507 670.8298610571301 586.8571428571429 264.1428571428571 637.8571428571429 425.1428571428571 M 637.8571428571429 425.1428571428571 C 688.8571428571429 586.1428571428571 312.8571428571429 718.8571428571429 542.8571428571429 801.8571428571429 "/><path clip-path="url(#clip)" stroke="#ff0000" fill="none" stroke-width="2" stroke-opacity="0.47" d="M 624.5 214.5 C 789.5 370.5 724.3395120491226 580.0954863000447 698.4465040163742 627.3651621000149 M 698.4465040163742 627.3651621000149 C 672.5534959836257 674.6348378999851 566 275.5 617 436.5 M 617 436.5 C 668 597.5 333 719 563 802 "/><path clip-path="url(#clip)" stroke="#ff0000" fill="none" stroke-width="2" stroke-opacity="0.53" d="M 604 215.42857142857142 C 769 371.42857142857144 715.8471543324978 583.9004631428998 689.9541462997494 631.1701389428699 M 689.9541462997494 631.1701389428699 C 664.0611382670011 678.4398147428401 545.1428571428571 286.85714285714283 596.1428571428571 447.85714285714283 M 596.1428571428571 447.85714285714283 C 647.1428571428571 608.8571428571429 353.1428571428571 719.1428571428571 583.1428571428571 802.1428571428571 "/><path clip-path="url(#clip)" stroke="#ff0000" fill="none" stroke-width="2" stroke-opacity="0.60" d="M 583.5 216.35714285714286 C 748.5 372.3571428571429 707.3547966158728 587.7054399857548 681.4617885831244 634.9751157857249 M 681.4617885831244 634.9751157857249 C 655.568780550376 682.2447915856951 524.2857142857142 298.2142857142857 575.2857142857142 459.2142857142857 M 575.2857142857142 459.2142857142857 C 626.2857142857142 620.2142857142858 373.28571428571433 719.2857142857143 603.2857142857143 802.2857142857143 "/><path clip-path="url(#clip)" stroke="#ff0000" fill="none" stroke-width="2" stroke-opacity="0.67" d="M 563 217.28571428571428 C 728 373.2857142857142 698.862438899248 591.5104168286098 672.9694308664996 638.78009262858 M 672.9694308664996 638.78009262858 C 647.0764228337512 686.0497684285501 503.42857142857144 309.57142857142856 554.4285714285714 470.57142857142856 M 554.4285714285714 470.57142857142856 C 605.4285714285716 631.5714285714286 393.42857142857144 719.4285714285714 623.4285714285714 802.4285714285714 "/><path clip-path="url(#clip)" stroke="#ff0000" fill="none" stroke-width="2" stroke-opacity="0.73" d="M 542.5 218.21428571428572 C 707.5 374.2142857142858 690.370081182623 595.3153936714648 664.4770731498746 642.585069471435 M 664.4770731498746 642.585069471435 C 638.5840651171263 689.8547452714051 482.57142857142856 320.92857142857144 533.5714285714286 481.92857142857144 M 533.5714285714286 481.92857142857144 C 584.5714285714284 642.9285714285714 413.57142857142856 719.5714285714286 643.5714285714286 802.5714285714286 "/><path clip-path="url(#clip)" stroke="#ff0000" fill="none" stroke-width="2" stroke-opacity="0.80" d="M 522 219.14285714285714 C 687 375.1428571428571 681.8777234659982 599.1203705143198 655.9847154332498 646.39004631429 M 655.9847154332498 646.39004631429 C 630.0917074005013 693.6597221142601 461.7142857142858 332.2857142857143 512.7142857142858 493.2857142857143 M 512.7142857142858 493.2857142857143 C 563.7142857142858 654.2857142857142 433.71428571428567 719.7142857142857 663.7142857142857 802.7142857142857 "/><path clip-path="url(#clip)" stroke="#ff0000" fill="none" stroke-width="2" stroke-opacity="0.87" d="M 501.5 220.07142857142858 C 666.5 376.07142857142856 673.3853657493732 602.9253473571748 647.4923577166248 650.195023157145 M 647.4923577166248 650.195023157145 C 621.5993496838764 697.4646989571152 440.85714285714283 343.6428571428571 491.85714285714283 504.6428571428571 M 491.85714285714283 504.6428571428571 C 542.8571428571429 665.6428571428571 453.8571428571429 719.8571428571429 683.8571428571429 802.8571428571429 "/><path clip-path="url(#clip)" stroke="#ff0000" fill="none" stroke-width="2" stroke-opacity="0.93" d="M 481 221 C 646 377 664.8930080327484 606.7303242000298 639 654 M 639 654 C 613.1069919672516 701.2696757999702 420 355 471 516 M 471 516 C 522 677 474 720 704 803 "/></svg>